<svg xmlns="http://www.w3.org/2000/svg" viewBox="0 0 32 32" width="32" height="32">
  <rect width="32" height="32" rx="6" fill="#ffffff"/>
  <path transform="matrix(0.014076,0,0,-0.014076,4.8941,25.7546)" d="M695 512H956L1094 335L1217 191L1466 -124H1181L1011 88L928 206ZM789 -20Q592 -20 434.5 70.0Q277 160 185.5 331.0Q94 502 94 744Q94 987 185.5 1158.5Q277 1330 434.5 1420.0Q592 1510 789 1510Q987 1510 1144.0 1420.0Q1301 1330 1392.5 1158.5Q1484 987 1484 744Q1484 502 1392.5 331.0Q1301 160 1144.0 70.0Q987 -20 789 -20ZM789 251Q905 251 991.5 307.5Q1078 364 1126.0 474.5Q1174 585 1174 744Q1174 905 1126.0 1015.5Q1078 1126 991.5 1182.5Q905 1239 789 1239Q674 1239 587.0 1182.0Q500 1125 452.0 1014.5Q404 904 404 744Q404 585 452.0 475.0Q500 365 587.0 308.0Q674 251 789 251Z" fill="#1074ef"/>
</svg>
